<svg version="1.1" id="Layer_1" xmlns="http://www.w3.org/2000/svg" xmlns:xlink="http://www.w3.org/1999/xlink" x="0px" y="0px"
	 width="100%" viewBox="0 0 1000 1000" enable-background="new 0 0 1000 1000" xml:space="preserve">
<path fill="#000000" opacity="1.000000" stroke="none" 
	d="
M460.000000,1001.000000 
	C306.666656,1001.000000 153.833328,1001.000000 1.000000,1001.000000 
	C1.000000,667.666687 1.000000,334.333344 1.000000,1.000000 
	C334.333344,1.000000 667.666687,1.000000 1001.000000,1.000000 
	C1001.000000,334.333344 1001.000000,667.666687 1001.000000,1001.000000 
	C820.833313,1001.000000 640.666687,1001.000000 460.000000,1001.000000 
M346.957703,544.534729 
	C373.686310,603.250854 435.017609,640.303406 505.027435,630.854919 
	C537.358154,626.491577 565.417175,611.830322 588.264404,588.862427 
	C613.276917,563.717773 628.422791,533.175171 631.666443,496.930054 
	C620.450684,495.953339 609.247009,494.819427 598.018616,494.042450 
	C585.701355,493.190063 573.368164,492.458588 561.029419,492.051392 
	C544.627991,491.510101 528.215759,491.192535 511.805695,491.037994 
	C493.990448,490.870239 476.171539,490.898254 458.355927,491.045197 
	C450.106689,491.113251 441.861053,491.657166 433.614410,492.000580 
	C409.706146,492.996246 385.795349,493.937653 361.891541,495.031097 
	C352.593079,495.456421 343.310669,496.231628 334.032135,496.846680 
	C334.990601,502.775238 335.357086,508.169403 336.792267,513.262390 
	C339.699158,523.577637 343.185120,533.729675 346.957703,544.534729 
M610.043396,440.395111 
	C615.532837,454.644867 616.709045,469.513336 615.909973,484.488739 
	C620.580139,485.028809 624.766968,485.538849 628.960327,485.988312 
	C631.499451,486.260468 633.187622,485.550873 633.017334,482.502808 
	C632.621948,475.425201 632.937866,468.246887 631.860657,461.280243 
	C629.118591,443.547272 623.671021,426.680176 614.593262,411.022888 
	C606.550598,397.151001 597.288635,384.471924 585.312317,373.568726 
	C572.109436,361.548767 557.654663,351.923157 541.374512,344.631073 
	C526.895752,338.145874 511.730438,334.504883 496.152374,333.230560 
	C485.504700,332.359528 474.660492,333.377472 463.937073,334.064789 
	C447.314697,335.130157 431.759613,340.539948 416.951050,347.697754 
	C400.699890,355.552765 386.379272,366.251221 373.899963,379.469116 
	C361.873138,392.207764 352.184906,406.399841 345.197845,422.422668 
	C337.000824,441.220215 332.549286,460.798126 332.894592,481.429016 
	C332.962097,485.462952 334.539642,486.430573 337.966675,485.990906 
	C341.500336,485.537598 345.026428,485.025665 348.157043,484.594299 
	C349.103912,476.343628 349.983917,468.079437 351.014099,459.834015 
	C352.684662,446.463226 356.900116,433.767242 363.138977,421.971863 
	C371.622345,405.932953 381.782806,390.881226 396.683502,379.982697 
	C405.891510,373.247803 415.294739,366.434845 425.499786,361.494049 
	C438.660339,355.122284 452.822845,351.413605 467.614471,349.796967 
	C483.333954,348.079010 498.671570,349.265442 513.974670,352.486023 
	C528.908630,355.628906 542.498901,362.124207 555.344971,370.117065 
	C568.692078,378.421692 580.306946,388.951324 589.637329,401.506561 
	C598.246460,413.091370 605.248840,425.799957 610.043396,440.395111 
M324.056824,677.746460 
	C330.899323,677.391113 337.741791,677.035767 344.641571,676.677490 
	C344.641571,686.865479 344.641571,696.332336 344.641571,705.899170 
	C349.670624,705.899170 354.639404,705.899170 359.664978,705.899170 
	C357.449768,701.968079 357.232544,642.612488 359.347198,638.158752 
	C354.388123,638.158752 349.416992,638.158752 344.704346,638.158752 
	C344.704346,647.478394 344.704346,656.638611 344.704346,665.706177 
	C337.668640,665.706177 330.931732,665.706177 324.299500,665.706177 
	C324.299500,656.371033 324.299500,647.331909 324.299500,638.229736 
	C319.489777,638.229736 314.471863,638.229736 309.890869,638.229736 
	C310.281464,640.237366 310.945282,642.082581 310.952911,643.930481 
	C311.030151,662.580811 311.033569,681.231628 310.951324,699.881897 
	C310.942505,701.886780 310.260162,703.888611 309.912781,705.769775 
	C314.508453,705.769775 319.603546,705.769775 324.003937,705.769775 
	C324.003937,696.608337 324.003937,687.661133 324.056824,677.746460 
M359.477783,492.000000 
	C367.481506,491.333588 375.474731,490.468506 383.491241,490.043243 
	C398.821533,489.229950 414.160309,488.508026 429.504486,488.042328 
	C446.584351,487.523956 463.673187,487.175873 480.760101,487.067139 
	C489.176636,487.013611 497.595123,487.775085 506.017273,487.977020 
	C523.100952,488.386688 540.192261,488.517944 557.271790,489.045868 
	C571.616638,489.489288 585.956970,490.197998 600.284790,491.036865 
	C614.383850,491.862335 628.479126,492.832703 642.549255,494.048859 
	C655.237061,495.145569 667.920166,496.417969 680.548462,498.052612 
	C696.645996,500.136383 712.732605,502.385620 728.739685,505.066833 
	C749.221802,508.497681 769.388672,513.268555 788.692749,521.195496 
	C789.884460,521.684875 791.451965,521.259033 792.844666,521.259033 
	C790.448242,519.259521 788.036011,517.994507 785.510803,517.023560 
	C768.184631,510.361786 750.309814,505.808105 731.970398,502.938934 
	C715.968201,500.435394 700.060730,497.273712 684.016052,495.110138 
	C667.996582,492.949951 651.874878,491.485077 635.767761,490.056244 
	C621.534729,488.793701 607.269287,487.832825 593.001221,487.045227 
	C577.340759,486.180695 561.660828,485.108612 545.989502,485.109680 
	C506.404541,485.112366 466.817535,485.517914 427.235687,486.072968 
	C411.391449,486.295135 395.555969,487.274750 379.721619,488.018860 
	C367.546631,488.591003 355.377960,489.304840 343.210114,490.017792 
	C339.119507,490.257446 335.028839,490.589020 330.957764,491.050812 
	C319.783325,492.318329 308.618744,493.673248 297.451172,495.001251 
	C288.875153,496.021057 280.248444,496.739227 271.737732,498.153656 
	C259.632141,500.165527 247.592621,502.595734 235.560287,505.022736 
	C217.893616,508.586273 200.502182,513.085693 184.315796,521.310242 
	C182.775330,522.093018 181.476044,523.350403 179.034927,525.144287 
	C181.227219,525.392273 182.287292,525.866272 182.853210,525.523804 
	C193.975876,518.792358 206.191315,514.887878 218.724823,512.056824 
	C233.351669,508.752991 248.052231,505.723541 262.808655,503.062012 
	C274.306732,500.988159 285.928772,499.581451 297.516113,498.030548 
	C303.825653,497.186096 310.173218,496.613342 316.511414,495.997955 
	C330.513245,494.638458 344.520020,493.329529 359.477783,492.000000 
M460.000000,698.270081 
	C459.689484,700.818665 459.378967,703.367310 459.083313,705.793945 
	C479.407135,705.793945 500.019287,705.793945 520.814697,705.793945 
	C520.814697,701.863403 520.814697,698.137085 520.814697,695.204956 
	C512.289856,695.204956 503.886536,695.204956 495.312195,695.204956 
	C504.410767,683.334412 513.595703,671.351135 522.824463,659.310791 
	C508.637634,659.310791 494.887207,659.310791 481.086914,659.310791 
	C481.086914,663.270081 481.086914,666.918396 481.086914,669.783325 
	C487.936157,669.783325 494.700165,669.783325 502.092346,669.783325 
	C491.976929,681.290222 484.332336,694.819580 473.334961,705.573120 
	C472.853638,705.267151 472.372314,704.961182 471.890991,704.655212 
	C471.890991,689.550598 471.890991,674.445984 471.890991,659.180359 
	C467.183502,659.180359 462.807770,659.180359 458.172180,659.180359 
	C458.863373,660.230530 459.845581,661.030151 459.854126,661.839966 
	C459.979126,673.666992 459.974060,685.495300 460.000000,698.270081 
M409.962616,700.557312 
	C416.066254,695.216125 419.984985,688.423035 418.819244,680.404724 
	C416.459564,664.174194 400.260254,654.551331 384.858093,659.457153 
	C373.362152,663.118774 366.082153,675.179993 367.120361,683.989319 
	C368.232819,693.428955 373.379822,700.728394 382.172028,704.561829 
	C391.739990,708.733337 401.029205,707.597595 409.962616,700.557312 
M527.947021,678.469727 
	C527.631653,679.369019 527.040039,680.268982 527.042480,681.167419 
	C527.078491,694.426392 536.931213,706.394714 552.581909,706.868225 
	C562.570374,707.170471 572.465332,701.680420 577.236450,690.447021 
	C580.625244,682.468140 577.954590,671.510803 570.615845,665.056885 
	C563.198730,658.534058 554.798767,656.487488 545.467285,659.282104 
	C536.302002,662.026978 530.246948,668.105896 527.947021,678.469727 
M588.000061,684.507507 
	C587.863342,691.629150 587.726624,698.750854 587.592773,705.725281 
	C591.231079,705.725281 595.941467,705.725281 600.000000,705.725281 
	C600.000000,696.183167 599.995605,686.901978 600.001709,677.620789 
	C600.005310,672.150085 602.977600,669.248474 608.808594,669.000061 
	C613.906982,668.782959 618.807434,672.264160 618.922729,676.831360 
	C619.166504,686.490234 618.997009,696.159546 618.997009,705.871826 
	C623.370239,705.871826 627.983887,705.871826 632.102905,705.871826 
	C631.728088,703.802368 631.141846,701.803772 631.038757,699.780457 
	C630.611450,691.396362 631.440552,682.772339 629.743652,674.668762 
	C626.968689,661.417297 611.664062,653.214478 599.563416,660.905762 
	C595.396729,663.554138 591.217102,666.182068 588.000000,668.214905 
	C588.000000,673.722473 588.000000,678.617493 588.000061,684.507507 
M662.411926,668.905640 
	C663.863525,669.803833 665.315125,670.701965 666.742065,671.584900 
	C666.742065,667.354187 666.742065,663.267029 666.742065,659.004333 
	C660.530762,659.004333 654.515320,658.471497 648.643188,659.160400 
	C643.224976,659.796082 640.152893,664.410034 639.240723,669.200012 
	C638.370422,673.770142 639.590515,678.545959 644.536316,681.179749 
	C648.506409,683.293884 652.529785,685.364563 656.258362,687.859680 
	C659.840210,690.256409 660.194397,694.911926 656.975647,696.346558 
	C654.831726,697.302185 651.983276,697.671814 649.719421,697.145569 
	C645.691711,696.209412 641.868164,694.394775 638.000000,692.962646 
	C638.000000,695.019592 638.000000,697.349548 638.000000,699.679565 
	C638.000000,701.996643 638.000000,704.313721 638.000000,706.307068 
	C640.208252,706.208923 642.147827,706.065918 644.088562,706.047729 
	C648.891052,706.002686 653.787659,706.609802 658.476257,705.872437 
	C666.660400,704.585205 669.872864,699.697754 670.934326,693.025146 
	C671.873840,687.118530 668.535767,682.372314 661.772644,678.978027 
	C658.899231,677.535889 655.888428,676.293274 653.238159,674.515503 
	C652.102173,673.753418 651.244690,671.876160 651.192505,670.470947 
	C651.162964,669.676270 652.963867,668.206970 654.045898,668.098938 
	C656.618469,667.841919 659.253906,668.214172 662.411926,668.905640 
M429.886719,659.000000 
	C428.725861,659.000000 427.564972,659.000000 426.304626,659.000000 
	C428.548096,663.038452 428.747406,701.429382 426.661835,705.836914 
	C431.288574,705.836914 435.928619,705.836914 440.000000,705.836914 
	C440.000000,696.772217 440.117279,687.857727 439.941101,678.948975 
	C439.872589,675.484375 441.137207,672.765442 444.079468,671.542114 
	C447.091003,670.290039 450.503265,670.001648 453.886597,669.259338 
	C453.886597,665.462646 453.886597,661.487732 453.886597,657.006042 
	C448.901703,659.014587 444.110382,660.945190 439.156738,662.941162 
	C439.078308,662.312073 438.873322,660.668091 438.665314,659.000000 
	C435.771667,659.000000 433.279083,659.000000 429.886719,659.000000 
M459.002197,646.402710 
	C459.596405,647.695190 459.850311,649.496948 460.858093,650.170532 
	C462.755676,651.438660 465.426514,653.183350 467.155579,652.664246 
	C469.416016,651.985596 472.058990,649.585693 472.689484,647.394531 
	C473.220886,645.547729 471.700134,642.302917 470.059570,640.797241 
	C465.927032,637.004517 461.685059,639.028931 459.002197,646.402710 
z"/>
<path fill="#FFFFFF" opacity="1.000000" stroke="none" 
	d="
M346.695007,544.241882 
	C343.185120,533.729675 339.699158,523.577637 336.792267,513.262390 
	C335.357086,508.169403 334.990601,502.775238 334.032135,496.846680 
	C343.310669,496.231628 352.593079,495.456421 361.891541,495.031097 
	C385.795349,493.937653 409.706146,492.996246 433.614410,492.000580 
	C441.861053,491.657166 450.106689,491.113251 458.355927,491.045197 
	C476.171539,490.898254 493.990448,490.870239 511.805695,491.037994 
	C528.215759,491.192535 544.627991,491.510101 561.029419,492.051392 
	C573.368164,492.458588 585.701355,493.190063 598.018616,494.042450 
	C609.247009,494.819427 620.450684,495.953339 631.666443,496.930054 
	C628.422791,533.175171 613.276917,563.717773 588.264404,588.862427 
	C565.417175,611.830322 537.358154,626.491577 505.027435,630.854919 
	C435.017609,640.303406 373.686310,603.250854 346.695007,544.241882 
z"/>
<path fill="#FFFFFF" opacity="1.000000" stroke="none" 
	d="
M610.022278,439.987122 
	C605.248840,425.799957 598.246460,413.091370 589.637329,401.506561 
	C580.306946,388.951324 568.692078,378.421692 555.344971,370.117065 
	C542.498901,362.124207 528.908630,355.628906 513.974670,352.486023 
	C498.671570,349.265442 483.333954,348.079010 467.614471,349.796967 
	C452.822845,351.413605 438.660339,355.122284 425.499786,361.494049 
	C415.294739,366.434845 405.891510,373.247803 396.683502,379.982697 
	C381.782806,390.881226 371.622345,405.932953 363.138977,421.971863 
	C356.900116,433.767242 352.684662,446.463226 351.014099,459.834015 
	C349.983917,468.079437 349.103912,476.343628 348.157043,484.594299 
	C345.026428,485.025665 341.500336,485.537598 337.966675,485.990906 
	C334.539642,486.430573 332.962097,485.462952 332.894592,481.429016 
	C332.549286,460.798126 337.000824,441.220215 345.197845,422.422668 
	C352.184906,406.399841 361.873138,392.207764 373.899963,379.469116 
	C386.379272,366.251221 400.699890,355.552765 416.951050,347.697754 
	C431.759613,340.539948 447.314697,335.130157 463.937073,334.064789 
	C474.660492,333.377472 485.504700,332.359528 496.152374,333.230560 
	C511.730438,334.504883 526.895752,338.145874 541.374512,344.631073 
	C557.654663,351.923157 572.109436,361.548767 585.312317,373.568726 
	C597.288635,384.471924 606.550598,397.151001 614.593262,411.022888 
	C623.671021,426.680176 629.118591,443.547272 631.860657,461.280243 
	C632.937866,468.246887 632.621948,475.425201 633.017334,482.502808 
	C633.187622,485.550873 631.499451,486.260468 628.960327,485.988312 
	C624.766968,485.538849 620.580139,485.028809 615.909973,484.488739 
	C616.709045,469.513336 615.532837,454.644867 610.022278,439.987122 
z"/>
<path fill="#FFFFFF" opacity="1.000000" stroke="none" 
	d="
M324.030396,678.230164 
	C324.003937,687.661133 324.003937,696.608337 324.003937,705.769775 
	C319.603546,705.769775 314.508453,705.769775 309.912781,705.769775 
	C310.260162,703.888611 310.942505,701.886780 310.951324,699.881897 
	C311.033569,681.231628 311.030151,662.580811 310.952911,643.930481 
	C310.945282,642.082581 310.281464,640.237366 309.890869,638.229736 
	C314.471863,638.229736 319.489777,638.229736 324.299500,638.229736 
	C324.299500,647.331909 324.299500,656.371033 324.299500,665.706177 
	C330.931732,665.706177 337.668640,665.706177 344.704346,665.706177 
	C344.704346,656.638611 344.704346,647.478394 344.704346,638.158752 
	C349.416992,638.158752 354.388123,638.158752 359.347198,638.158752 
	C357.232544,642.612488 357.449768,701.968079 359.664978,705.899170 
	C354.639404,705.899170 349.670624,705.899170 344.641571,705.899170 
	C344.641571,696.332336 344.641571,686.865479 344.641571,676.677490 
	C337.741791,677.035767 330.899323,677.391113 324.030396,678.230164 
z"/>
<path fill="#FFFFFF" opacity="1.000000" stroke="none" 
	d="
M359.001282,492.000000 
	C344.520020,493.329529 330.513245,494.638458 316.511414,495.997955 
	C310.173218,496.613342 303.825653,497.186096 297.516113,498.030548 
	C285.928772,499.581451 274.306732,500.988159 262.808655,503.062012 
	C248.052231,505.723541 233.351669,508.752991 218.724823,512.056824 
	C206.191315,514.887878 193.975876,518.792358 182.853210,525.523804 
	C182.287292,525.866272 181.227219,525.392273 179.034927,525.144287 
	C181.476044,523.350403 182.775330,522.093018 184.315796,521.310242 
	C200.502182,513.085693 217.893616,508.586273 235.560287,505.022736 
	C247.592621,502.595734 259.632141,500.165527 271.737732,498.153656 
	C280.248444,496.739227 288.875153,496.021057 297.451172,495.001251 
	C308.618744,493.673248 319.783325,492.318329 330.957764,491.050812 
	C335.028839,490.589020 339.119507,490.257446 343.210114,490.017792 
	C355.377960,489.304840 367.546631,488.591003 379.721619,488.018860 
	C395.555969,487.274750 411.391449,486.295135 427.235687,486.072968 
	C466.817535,485.517914 506.404541,485.112366 545.989502,485.109680 
	C561.660828,485.108612 577.340759,486.180695 593.001221,487.045227 
	C607.269287,487.832825 621.534729,488.793701 635.767761,490.056244 
	C651.874878,491.485077 667.996582,492.949951 684.016052,495.110138 
	C700.060730,497.273712 715.968201,500.435394 731.970398,502.938934 
	C750.309814,505.808105 768.184631,510.361786 785.510803,517.023560 
	C788.036011,517.994507 790.448242,519.259521 792.844666,521.259033 
	C791.451965,521.259033 789.884460,521.684875 788.692749,521.195496 
	C769.388672,513.268555 749.221802,508.497681 728.739685,505.066833 
	C712.732605,502.385620 696.645996,500.136383 680.548462,498.052612 
	C667.920166,496.417969 655.237061,495.145569 642.549255,494.048859 
	C628.479126,492.832703 614.383850,491.862335 600.284790,491.036865 
	C585.956970,490.197998 571.616638,489.489288 557.271790,489.045868 
	C540.192261,488.517944 523.100952,488.386688 506.017273,487.977020 
	C497.595123,487.775085 489.176636,487.013611 480.760101,487.067139 
	C463.673187,487.175873 446.584351,487.523956 429.504486,488.042328 
	C414.160309,488.508026 398.821533,489.229950 383.491241,490.043243 
	C375.474731,490.468506 367.481506,491.333588 359.001282,492.000000 
z"/>
<path fill="#FFFFFF" opacity="1.000000" stroke="none" 
	d="
M460.000000,697.796753 
	C459.974060,685.495300 459.979126,673.666992 459.854126,661.839966 
	C459.845581,661.030151 458.863373,660.230530 458.172180,659.180359 
	C462.807770,659.180359 467.183502,659.180359 471.890991,659.180359 
	C471.890991,674.445984 471.890991,689.550598 471.890991,704.655212 
	C472.372314,704.961182 472.853638,705.267151 473.334961,705.573120 
	C484.332336,694.819580 491.976929,681.290222 502.092346,669.783325 
	C494.700165,669.783325 487.936157,669.783325 481.086914,669.783325 
	C481.086914,666.918396 481.086914,663.270081 481.086914,659.310791 
	C494.887207,659.310791 508.637634,659.310791 522.824463,659.310791 
	C513.595703,671.351135 504.410767,683.334412 495.312195,695.204956 
	C503.886536,695.204956 512.289856,695.204956 520.814697,695.204956 
	C520.814697,698.137085 520.814697,701.863403 520.814697,705.793945 
	C500.019287,705.793945 479.407135,705.793945 459.083313,705.793945 
	C459.378967,703.367310 459.689484,700.818665 460.000000,697.796753 
z"/>
<path fill="#FFFFFF" opacity="1.000000" stroke="none" 
	d="
M409.691223,700.804810 
	C401.029205,707.597595 391.739990,708.733337 382.172028,704.561829 
	C373.379822,700.728394 368.232819,693.428955 367.120361,683.989319 
	C366.082153,675.179993 373.362152,663.118774 384.858093,659.457153 
	C400.260254,654.551331 416.459564,664.174194 418.819244,680.404724 
	C419.984985,688.423035 416.066254,695.216125 409.691223,700.804810 
M386.973114,670.016785 
	C379.684387,675.254944 376.881561,680.696594 379.256165,686.589905 
	C382.343811,694.252930 389.971924,697.797241 397.648346,695.145325 
	C406.480865,692.093933 408.722534,684.456909 406.600677,678.363586 
	C403.880493,670.552185 396.052643,666.921204 386.973114,670.016785 
z"/>
<path fill="#FFFFFF" opacity="1.000000" stroke="none" 
	d="
M527.971436,678.046143 
	C530.246948,668.105896 536.302002,662.026978 545.467285,659.282104 
	C554.798767,656.487488 563.198730,658.534058 570.615845,665.056885 
	C577.954590,671.510803 580.625244,682.468140 577.236450,690.447021 
	C572.465332,701.680420 562.570374,707.170471 552.581909,706.868225 
	C536.931213,706.394714 527.078491,694.426392 527.042480,681.167419 
	C527.040039,680.268982 527.631653,679.369019 527.971436,678.046143 
M549.192322,695.721497 
	C550.511963,695.814331 551.831909,695.989502 553.151245,695.985962 
	C559.323364,695.969666 565.266541,691.800598 566.867432,686.419128 
	C568.511230,680.893311 565.837219,674.066406 560.345459,670.975647 
	C555.213623,668.087585 550.056946,668.065918 544.858276,671.496948 
	C539.655090,674.930969 538.028625,679.841797 539.153564,685.368286 
	C540.145264,690.240051 543.196594,694.066528 549.192322,695.721497 
z"/>
<path fill="#FFFFFF" opacity="1.000000" stroke="none" 
	d="
M588.000000,684.010010 
	C588.000000,678.617493 588.000000,673.722473 588.000000,668.214905 
	C591.217102,666.182068 595.396729,663.554138 599.563416,660.905762 
	C611.664062,653.214478 626.968689,661.417297 629.743652,674.668762 
	C631.440552,682.772339 630.611450,691.396362 631.038757,699.780457 
	C631.141846,701.803772 631.728088,703.802368 632.102905,705.871826 
	C627.983887,705.871826 623.370239,705.871826 618.997009,705.871826 
	C618.997009,696.159546 619.166504,686.490234 618.922729,676.831360 
	C618.807434,672.264160 613.906982,668.782959 608.808594,669.000061 
	C602.977600,669.248474 600.005310,672.150085 600.001709,677.620789 
	C599.995605,686.901978 600.000000,696.183167 600.000000,705.725281 
	C595.941467,705.725281 591.231079,705.725281 587.592773,705.725281 
	C587.726624,698.750854 587.863342,691.629150 588.000000,684.010010 
z"/>
<path fill="#FFFFFF" opacity="1.000000" stroke="none" 
	d="
M662.137939,668.618896 
	C659.253906,668.214172 656.618469,667.841919 654.045898,668.098938 
	C652.963867,668.206970 651.162964,669.676270 651.192505,670.470947 
	C651.244690,671.876160 652.102173,673.753418 653.238159,674.515503 
	C655.888428,676.293274 658.899231,677.535889 661.772644,678.978027 
	C668.535767,682.372314 671.873840,687.118530 670.934326,693.025146 
	C669.872864,699.697754 666.660400,704.585205 658.476257,705.872437 
	C653.787659,706.609802 648.891052,706.002686 644.088562,706.047729 
	C642.147827,706.065918 640.208252,706.208923 638.000000,706.307068 
	C638.000000,704.313721 638.000000,701.996643 638.000000,699.679565 
	C638.000000,697.349548 638.000000,695.019592 638.000000,692.962646 
	C641.868164,694.394775 645.691711,696.209412 649.719421,697.145569 
	C651.983276,697.671814 654.831726,697.302185 656.975647,696.346558 
	C660.194397,694.911926 659.840210,690.256409 656.258362,687.859680 
	C652.529785,685.364563 648.506409,683.293884 644.536316,681.179749 
	C639.590515,678.545959 638.370422,673.770142 639.240723,669.200012 
	C640.152893,664.410034 643.224976,659.796082 648.643188,659.160400 
	C654.515320,658.471497 660.530762,659.004333 666.742065,659.004333 
	C666.742065,663.267029 666.742065,667.354187 666.742065,671.584900 
	C665.315125,670.701965 663.863525,669.803833 662.137939,668.618896 
z"/>
<path fill="#FFFFFF" opacity="1.000000" stroke="none" 
	d="
M430.336609,659.000000 
	C433.279083,659.000000 435.771667,659.000000 438.665314,659.000000 
	C438.873322,660.668091 439.078308,662.312073 439.156738,662.941162 
	C444.110382,660.945190 448.901703,659.014587 453.886597,657.006042 
	C453.886597,661.487732 453.886597,665.462646 453.886597,669.259338 
	C450.503265,670.001648 447.091003,670.290039 444.079468,671.542114 
	C441.137207,672.765442 439.872589,675.484375 439.941101,678.948975 
	C440.117279,687.857727 440.000000,696.772217 440.000000,705.836914 
	C435.928619,705.836914 431.288574,705.836914 426.661835,705.836914 
	C428.747406,701.429382 428.548096,663.038452 426.304626,659.000000 
	C427.564972,659.000000 428.725861,659.000000 430.336609,659.000000 
z"/>
<path fill="#FFFFFF" opacity="1.000000" stroke="none" 
	d="
M459.002136,646.004639 
	C461.685059,639.028931 465.927032,637.004517 470.059570,640.797241 
	C471.700134,642.302917 473.220886,645.547729 472.689484,647.394531 
	C472.058990,649.585693 469.416016,651.985596 467.155579,652.664246 
	C465.426514,653.183350 462.755676,651.438660 460.858093,650.170532 
	C459.850311,649.496948 459.596405,647.695190 459.002136,646.004639 
z"/>
<path fill="#000000" opacity="1.000000" stroke="none" 
	d="
M387.383362,670.004517 
	C396.052643,666.921204 403.880493,670.552185 406.600677,678.363586 
	C408.722534,684.456909 406.480865,692.093933 397.648346,695.145325 
	C389.971924,697.797241 382.343811,694.252930 379.256165,686.589905 
	C376.881561,680.696594 379.684387,675.254944 387.383362,670.004517 
z"/>
<path fill="#000000" opacity="1.000000" stroke="none" 
	d="
M548.903564,695.418030 
	C543.196594,694.066528 540.145264,690.240051 539.153564,685.368286 
	C538.028625,679.841797 539.655090,674.930969 544.858276,671.496948 
	C550.056946,668.065918 555.213623,668.087585 560.345459,670.975647 
	C565.837219,674.066406 568.511230,680.893311 566.867432,686.419128 
	C565.266541,691.800598 559.323364,695.969666 553.151245,695.985962 
	C551.831909,695.989502 550.511963,695.814331 548.903564,695.418030 
z"/>
</svg>