<svg version="1.1" id="Layer_1" xmlns="http://www.w3.org/2000/svg" xmlns:xlink="http://www.w3.org/1999/xlink" x="0px" y="0px"
	 width="100%" viewBox="0 0 1000 1000" enable-background="new 0 0 1000 1000" xml:space="preserve">
<path fill="none" opacity="1.000000" stroke="none" 
	d="
M577.000000,1001.000000 
	C384.666656,1001.000000 192.833328,1001.000000 1.000000,1001.000000 
	C1.000000,667.666687 1.000000,334.333344 1.000000,1.000000 
	C334.333344,1.000000 667.666687,1.000000 1001.000000,1.000000 
	C1001.000000,334.333344 1001.000000,667.666687 1001.000000,1001.000000 
	C859.833313,1001.000000 718.666687,1001.000000 577.000000,1001.000000 
M474.500000,482.000183 
	C513.830322,482.000214 553.160583,481.993103 592.490906,482.021027 
	C594.468994,482.022430 596.445129,482.350098 598.424988,482.485077 
	C609.444275,483.236389 620.464417,483.975006 631.476318,484.717438 
	C634.783630,445.705078 613.489258,386.130096 559.285339,355.006775 
	C506.305328,324.586212 452.506104,325.313324 401.250580,358.070831 
	C355.913971,387.045624 334.273987,430.464447 333.646301,485.057068 
	C380.768890,480.019562 427.163727,482.655090 474.500000,482.000183 
M366.948669,494.467072 
	C356.074524,495.329193 345.200348,496.191345 334.326019,497.053467 
	C338.169159,541.401245 359.782227,575.748596 390.497345,600.180115 
	C423.336090,626.300903 461.576080,636.274902 503.376495,630.956665 
	C565.250793,623.084473 624.929016,570.844849 631.331421,496.942230 
	C543.562866,489.468628 455.750488,489.369507 366.948669,494.467072 
M310.987091,684.499512 
	C310.987091,691.564453 310.987091,698.629395 310.987091,705.796143 
	C315.097015,705.796143 319.880035,705.796143 324.130188,705.796143 
	C324.130188,696.224976 324.130188,686.862549 324.130188,677.270386 
	C331.072235,677.270386 337.979858,677.270386 344.897827,677.270386 
	C344.897827,686.894897 344.897827,696.253906 344.897827,705.809753 
	C349.177460,705.809753 353.961395,705.809753 358.421997,705.809753 
	C358.421997,683.211304 358.421997,660.751038 358.421997,638.214355 
	C353.865417,638.214355 349.084473,638.214355 344.853607,638.214355 
	C344.853607,647.464111 344.853607,656.498352 344.853607,665.747192 
	C337.933105,665.747192 331.014282,665.747192 324.121918,665.747192 
	C324.121918,656.401672 324.121918,647.298279 324.121918,638.150024 
	C319.560669,638.150024 314.927002,638.150024 310.987091,638.150024 
	C310.987091,653.369019 310.987091,668.434387 310.987091,684.499512 
M596.882263,487.938080 
	C594.918762,487.630676 592.963501,487.131714 590.990356,487.046173 
	C575.059937,486.355438 559.122131,485.122528 543.193970,485.222168 
	C495.771545,485.518768 448.345337,486.035309 400.935364,487.114532 
	C380.251007,487.585358 359.576385,489.324219 338.945709,491.061951 
	C320.527771,492.613373 302.093842,494.396820 283.817657,497.097626 
	C263.195892,500.145020 242.576569,503.611328 222.276428,508.286072 
	C209.560791,511.214264 197.420883,516.665527 185.072006,521.121460 
	C184.046738,521.491394 183.399261,522.908264 182.576248,523.838745 
	C189.513611,521.879333 195.493042,519.162231 201.673386,517.026550 
	C223.477448,509.492004 246.003922,505.063049 268.815186,501.997650 
	C289.052887,499.278107 309.267242,496.301758 329.567963,494.159088 
	C347.504272,492.265991 365.534698,491.191833 383.543671,490.082153 
	C398.627533,489.152679 413.735168,488.318787 428.841553,488.109131 
	C455.954559,487.732849 483.075531,487.671875 510.191162,487.830658 
	C531.655518,487.956360 553.118042,488.557922 574.578979,489.054108 
	C582.049500,489.226807 589.526306,489.535980 596.976379,490.099060 
	C612.815796,491.296234 628.642273,492.670105 644.468933,494.030731 
	C655.652771,494.992188 666.880737,495.661346 677.995361,497.156647 
	C695.104431,499.458435 712.182922,502.074890 729.183289,505.074249 
	C749.865540,508.723175 770.387573,513.136108 789.715393,521.796570 
	C790.612549,522.198547 791.776794,522.004639 792.816650,522.088196 
	C792.951294,521.556030 793.085938,521.023804 793.220520,520.491577 
	C788.742554,518.637817 784.403015,516.267761 779.761719,515.022705 
	C762.821106,510.478363 745.894043,505.765167 728.741699,502.164093 
	C713.946716,499.057953 698.885376,497.125671 683.879028,495.152100 
	C672.743896,493.687653 661.516663,492.882263 650.315063,491.973175 
	C632.824951,490.553802 615.321777,489.295258 596.882263,487.938080 
M370.905823,670.547058 
	C369.637695,675.203125 366.823822,680.053650 367.380798,684.480042 
	C369.333374,699.997559 384.137360,709.794922 399.511169,705.974609 
	C413.543274,702.487732 424.533661,686.183289 415.483551,670.955505 
	C406.552704,655.928284 383.622864,652.478333 370.905823,670.547058 
M530.905762,670.547119 
	C529.637634,675.203186 526.823853,680.053711 527.380859,684.480103 
	C529.333496,699.997498 544.137207,709.794922 559.511108,705.974548 
	C573.543335,702.487671 584.533569,686.183228 575.483582,670.955566 
	C566.552795,655.928467 543.623047,652.478210 530.905762,670.547119 
M587.232178,668.906982 
	C587.232178,681.198181 587.232178,693.489380 587.232178,705.842651 
	C591.861877,705.842651 596.160461,705.842651 600.003540,705.842651 
	C600.003540,700.945740 600.003479,696.209595 600.003540,691.473511 
	C600.003540,686.644897 599.987061,681.816223 600.008301,676.987671 
	C600.028809,672.333374 602.959473,669.453247 608.077087,669.006653 
	C613.496094,668.533752 618.745972,671.664429 618.885620,676.170166 
	C619.191040,686.023621 618.980164,695.893127 618.980164,705.859924 
	C623.005005,705.859924 627.304504,705.859924 631.389771,705.859924 
	C631.256470,703.164307 631.120056,700.608337 631.005493,698.051453 
	C630.664490,690.437866 631.133545,682.683411 629.827820,675.239746 
	C627.191406,660.209961 610.158264,653.512817 597.559082,661.961182 
	C594.290649,664.152893 590.859497,666.101990 587.232178,668.906982 
M503.469757,684.037659 
	C509.796326,675.952515 516.122864,667.867432 522.874023,659.239685 
	C508.264648,659.239685 494.835754,659.239685 481.259399,659.239685 
	C481.259399,663.144226 481.259399,666.802307 481.259399,669.729614 
	C488.169037,669.729614 494.818451,669.729614 501.959045,669.729614 
	C492.907379,681.593994 483.862427,693.449646 474.496704,705.725708 
	C490.293671,705.725708 505.479126,705.725708 520.833618,705.725708 
	C520.833618,701.824463 520.833618,698.197449 520.833618,695.279907 
	C512.375488,695.279907 503.943115,695.279907 495.295837,695.279907 
	C497.851379,691.749084 500.436890,688.176819 503.469757,684.037659 
M651.088684,669.727661 
	C656.413452,664.471863 661.190674,667.920288 666.189941,670.971619 
	C666.189941,666.844543 666.189941,663.033142 666.189941,659.003906 
	C660.215454,659.003906 654.568848,658.427856 649.098755,659.163696 
	C643.479004,659.919739 640.143372,664.217651 639.302063,669.659790 
	C638.586426,674.288391 640.215088,678.503784 644.522095,681.092712 
	C648.475037,683.468689 652.657837,685.484802 656.486328,688.038696 
	C659.963806,690.358398 660.079956,695.043701 656.746521,696.508545 
	C654.601807,697.451050 651.797180,698.045288 649.614685,697.496826 
	C645.627625,696.494873 641.882568,694.529541 638.266663,693.059570 
	C638.266663,697.125122 638.266663,701.557983 638.266663,705.795044 
	C641.856628,706.080383 645.149902,706.527405 648.446533,706.553162 
	C651.892639,706.580139 655.403625,706.541199 658.776794,705.928528 
	C665.375244,704.730225 669.958740,699.698059 670.983582,693.163025 
	C671.745728,688.303284 668.357849,682.422363 662.895081,679.434143 
	C660.325256,678.028442 657.398438,677.190613 655.030457,675.529358 
	C653.350586,674.350891 652.335693,672.224426 651.088684,669.727661 
M429.803223,658.999329 
	C428.985321,659.047180 428.167419,659.094971 427.599182,659.128235 
	C427.599182,674.755493 427.599182,690.207581 427.599182,705.808716 
	C431.703278,705.808716 436.149719,705.808716 440.021851,705.808716 
	C440.021851,695.874817 439.844574,686.118042 440.188873,676.379761 
	C440.249298,674.671082 442.162323,672.229492 443.807953,671.549194 
	C446.805603,670.309875 450.244080,670.136841 453.818115,669.458252 
	C453.818115,666.021667 453.818115,661.782471 453.818115,656.848389 
	C448.617432,659.157166 443.800232,661.295715 439.057434,663.401184 
	C439.030121,662.804626 438.951630,661.091370 438.855774,658.998718 
	C435.998596,658.998718 433.362823,658.998718 429.803223,658.999329 
M464.607239,658.998718 
	C462.797363,658.998718 460.987488,658.998718 459.587952,658.998718 
	C459.587952,674.824402 459.587952,690.281067 459.587952,705.729187 
	C463.853149,705.729187 468.239532,705.729187 472.029785,705.729187 
	C472.029785,690.089539 472.029785,674.708374 472.029785,658.998718 
	C469.477295,658.998718 467.511871,658.998718 464.607239,658.998718 
M463.542633,639.950256 
	C459.704773,641.740845 458.020905,644.489563 459.971954,648.598206 
	C461.539185,651.898560 464.137512,653.507019 467.833710,652.356567 
	C471.602203,651.183533 473.618103,648.620300 472.923065,644.564941 
	C472.317108,641.029114 468.624207,639.040405 463.542633,639.950256 
z"/>
<path fill="#FFCD49" opacity="1.000000" stroke="none" 
	d="
M474.000000,482.000183 
	C427.163727,482.655090 380.768890,480.019562 333.646301,485.057068 
	C334.273987,430.464447 355.913971,387.045624 401.250580,358.070831 
	C452.506104,325.313324 506.305328,324.586212 559.285339,355.006775 
	C613.489258,386.130096 634.783630,445.705078 631.476318,484.717438 
	C620.464417,483.975006 609.444275,483.236389 598.424988,482.485077 
	C596.445129,482.350098 594.468994,482.022430 592.490906,482.021027 
	C553.160583,481.993103 513.830322,482.000214 474.000000,482.000183 
z"/>
<path fill="#1ADBE1" opacity="1.000000" stroke="none" 
	d="
M367.412292,494.401398 
	C455.750488,489.369507 543.562866,489.468628 631.331421,496.942230 
	C624.929016,570.844849 565.250793,623.084473 503.376495,630.956665 
	C461.576080,636.274902 423.336090,626.300903 390.497345,600.180115 
	C359.782227,575.748596 338.169159,541.401245 334.326019,497.053467 
	C345.200348,496.191345 356.074524,495.329193 367.412292,494.401398 
z"/>
<path fill="#2071A3" opacity="1.000000" stroke="none" 
	d="
M310.987091,683.999634 
	C310.987091,668.434387 310.987091,653.369019 310.987091,638.150024 
	C314.927002,638.150024 319.560669,638.150024 324.121918,638.150024 
	C324.121918,647.298279 324.121918,656.401672 324.121918,665.747192 
	C331.014282,665.747192 337.933105,665.747192 344.853607,665.747192 
	C344.853607,656.498352 344.853607,647.464111 344.853607,638.214355 
	C349.084473,638.214355 353.865417,638.214355 358.421997,638.214355 
	C358.421997,660.751038 358.421997,683.211304 358.421997,705.809753 
	C353.961395,705.809753 349.177460,705.809753 344.897827,705.809753 
	C344.897827,696.253906 344.897827,686.894897 344.897827,677.270386 
	C337.979858,677.270386 331.072235,677.270386 324.130188,677.270386 
	C324.130188,686.862549 324.130188,696.224976 324.130188,705.796143 
	C319.880035,705.796143 315.097015,705.796143 310.987091,705.796143 
	C310.987091,698.629395 310.987091,691.564453 310.987091,683.999634 
z"/>
<path fill="#2774A3" opacity="1.000000" stroke="none" 
	d="
M597.353149,487.953308 
	C615.321777,489.295258 632.824951,490.553802 650.315063,491.973175 
	C661.516663,492.882263 672.743896,493.687653 683.879028,495.152100 
	C698.885376,497.125671 713.946716,499.057953 728.741699,502.164093 
	C745.894043,505.765167 762.821106,510.478363 779.761719,515.022705 
	C784.403015,516.267761 788.742554,518.637817 793.220520,520.491577 
	C793.085938,521.023804 792.951294,521.556030 792.816650,522.088196 
	C791.776794,522.004639 790.612549,522.198547 789.715393,521.796570 
	C770.387573,513.136108 749.865540,508.723175 729.183289,505.074249 
	C712.182922,502.074890 695.104431,499.458435 677.995361,497.156647 
	C666.880737,495.661346 655.652771,494.992188 644.468933,494.030731 
	C628.642273,492.670105 612.815796,491.296234 596.976379,490.099060 
	C589.526306,489.535980 582.049500,489.226807 574.578979,489.054108 
	C553.118042,488.557922 531.655518,487.956360 510.191162,487.830658 
	C483.075531,487.671875 455.954559,487.732849 428.841553,488.109131 
	C413.735168,488.318787 398.627533,489.152679 383.543671,490.082153 
	C365.534698,491.191833 347.504272,492.265991 329.567963,494.159088 
	C309.267242,496.301758 289.052887,499.278107 268.815186,501.997650 
	C246.003922,505.063049 223.477448,509.492004 201.673386,517.026550 
	C195.493042,519.162231 189.513611,521.879333 182.576248,523.838745 
	C183.399261,522.908264 184.046738,521.491394 185.072006,521.121460 
	C197.420883,516.665527 209.560791,511.214264 222.276428,508.286072 
	C242.576569,503.611328 263.195892,500.145020 283.817657,497.097626 
	C302.093842,494.396820 320.527771,492.613373 338.945709,491.061951 
	C359.576385,489.324219 380.251007,487.585358 400.935364,487.114532 
	C448.345337,486.035309 495.771545,485.518768 543.193970,485.222168 
	C559.122131,485.122528 575.059937,486.355438 590.990356,487.046173 
	C592.963501,487.131714 594.918762,487.630676 597.353149,487.953308 
z"/>
<path fill="#1C6EA1" opacity="1.000000" stroke="none" 
	d="
M371.028076,670.195679 
	C383.622864,652.478333 406.552704,655.928284 415.483551,670.955505 
	C424.533661,686.183289 413.543274,702.487732 399.511169,705.974609 
	C384.137360,709.794922 369.333374,699.997559 367.380798,684.480042 
	C366.823822,680.053650 369.637695,675.203125 371.028076,670.195679 
M392.570526,669.004822 
	C385.113556,668.762756 378.168976,675.299988 378.921417,683.723511 
	C379.533264,690.573364 385.352600,695.995789 393.002747,695.995117 
	C400.643921,695.994446 406.467316,690.562378 407.078979,683.717407 
	C407.830597,675.306580 400.885193,668.757385 392.570526,669.004822 
z"/>
<path fill="#1C6EA1" opacity="1.000000" stroke="none" 
	d="
M531.028076,670.195679 
	C543.623047,652.478210 566.552795,655.928467 575.483582,670.955566 
	C584.533569,686.183228 573.543335,702.487671 559.511108,705.974548 
	C544.137207,709.794922 529.333496,699.997498 527.380859,684.480103 
	C526.823853,680.053711 529.637634,675.203186 531.028076,670.195679 
M565.689453,676.208862 
	C560.036011,666.059265 546.571289,667.656799 541.880676,673.890198 
	C537.698181,679.448364 537.963562,687.068420 542.451721,691.925293 
	C546.616943,696.432678 554.912842,697.375610 560.599243,693.987915 
	C566.515991,690.463135 568.584351,683.929504 565.689453,676.208862 
z"/>
<path fill="#1C6EA1" opacity="1.000000" stroke="none" 
	d="
M587.367615,668.534729 
	C590.859497,666.101990 594.290649,664.152893 597.559082,661.961182 
	C610.158264,653.512817 627.191406,660.209961 629.827820,675.239746 
	C631.133545,682.683411 630.664490,690.437866 631.005493,698.051453 
	C631.120056,700.608337 631.256470,703.164307 631.389771,705.859924 
	C627.304504,705.859924 623.005005,705.859924 618.980164,705.859924 
	C618.980164,695.893127 619.191040,686.023621 618.885620,676.170166 
	C618.745972,671.664429 613.496094,668.533752 608.077087,669.006653 
	C602.959473,669.453247 600.028809,672.333374 600.008301,676.987671 
	C599.987061,681.816223 600.003540,686.644897 600.003540,691.473511 
	C600.003479,696.209595 600.003540,700.945740 600.003540,705.842651 
	C596.160461,705.842651 591.861877,705.842651 587.232178,705.842651 
	C587.232178,693.489380 587.232178,681.198181 587.367615,668.534729 
z"/>
<path fill="#1C6EA1" opacity="1.000000" stroke="none" 
	d="
M503.246094,684.321106 
	C500.436890,688.176819 497.851379,691.749084 495.295837,695.279907 
	C503.943115,695.279907 512.375488,695.279907 520.833618,695.279907 
	C520.833618,698.197449 520.833618,701.824463 520.833618,705.725708 
	C505.479126,705.725708 490.293671,705.725708 474.496704,705.725708 
	C483.862427,693.449646 492.907379,681.593994 501.959045,669.729614 
	C494.818451,669.729614 488.169037,669.729614 481.259399,669.729614 
	C481.259399,666.802307 481.259399,663.144226 481.259399,659.239685 
	C494.835754,659.239685 508.264648,659.239685 522.874023,659.239685 
	C516.122864,667.867432 509.796326,675.952515 503.246094,684.321106 
z"/>
<path fill="#2071A2" opacity="1.000000" stroke="none" 
	d="
M651.056335,670.124390 
	C652.335693,672.224426 653.350586,674.350891 655.030457,675.529358 
	C657.398438,677.190613 660.325256,678.028442 662.895081,679.434143 
	C668.357849,682.422363 671.745728,688.303284 670.983582,693.163025 
	C669.958740,699.698059 665.375244,704.730225 658.776794,705.928528 
	C655.403625,706.541199 651.892639,706.580139 648.446533,706.553162 
	C645.149902,706.527405 641.856628,706.080383 638.266663,705.795044 
	C638.266663,701.557983 638.266663,697.125122 638.266663,693.059570 
	C641.882568,694.529541 645.627625,696.494873 649.614685,697.496826 
	C651.797180,698.045288 654.601807,697.451050 656.746521,696.508545 
	C660.079956,695.043701 659.963806,690.358398 656.486328,688.038696 
	C652.657837,685.484802 648.475037,683.468689 644.522095,681.092712 
	C640.215088,678.503784 638.586426,674.288391 639.302063,669.659790 
	C640.143372,664.217651 643.479004,659.919739 649.098755,659.163696 
	C654.568848,658.427856 660.215454,659.003906 666.189941,659.003906 
	C666.189941,663.033142 666.189941,666.844543 666.189941,670.971619 
	C661.190674,667.920288 656.413452,664.471863 651.056335,670.124390 
z"/>
<path fill="#1B6DA0" opacity="1.000000" stroke="none" 
	d="
M430.265137,658.999023 
	C433.362823,658.998718 435.998596,658.998718 438.855774,658.998718 
	C438.951630,661.091370 439.030121,662.804626 439.057434,663.401184 
	C443.800232,661.295715 448.617432,659.157166 453.818115,656.848389 
	C453.818115,661.782471 453.818115,666.021667 453.818115,669.458252 
	C450.244080,670.136841 446.805603,670.309875 443.807953,671.549194 
	C442.162323,672.229492 440.249298,674.671082 440.188873,676.379761 
	C439.844574,686.118042 440.021851,695.874817 440.021851,705.808716 
	C436.149719,705.808716 431.703278,705.808716 427.599182,705.808716 
	C427.599182,690.207581 427.599182,674.755493 427.599182,659.128235 
	C428.167419,659.094971 428.985321,659.047180 430.265137,658.999023 
z"/>
<path fill="#1B6DA0" opacity="1.000000" stroke="none" 
	d="
M465.076843,658.998718 
	C467.511871,658.998718 469.477295,658.998718 472.029785,658.998718 
	C472.029785,674.708374 472.029785,690.089539 472.029785,705.729187 
	C468.239532,705.729187 463.853149,705.729187 459.587952,705.729187 
	C459.587952,690.281067 459.587952,674.824402 459.587952,658.998718 
	C460.987488,658.998718 462.797363,658.998718 465.076843,658.998718 
z"/>
<path fill="#2071A3" opacity="1.000000" stroke="none" 
	d="
M463.890442,639.793823 
	C468.624207,639.040405 472.317108,641.029114 472.923065,644.564941 
	C473.618103,648.620300 471.602203,651.183533 467.833710,652.356567 
	C464.137512,653.507019 461.539185,651.898560 459.971954,648.598206 
	C458.020905,644.489563 459.704773,641.740845 463.890442,639.793823 
z"/>
<path fill="#FFFFFF" opacity="1.000000" stroke="none" 
	d="
M392.996918,669.004822 
	C400.885193,668.757385 407.830597,675.306580 407.078979,683.717407 
	C406.467316,690.562378 400.643921,695.994446 393.002747,695.995117 
	C385.352600,695.995789 379.533264,690.573364 378.921417,683.723511 
	C378.168976,675.299988 385.113556,668.762756 392.996918,669.004822 
z"/>
<path fill="#FFFFFF" opacity="1.000000" stroke="none" 
	d="
M565.839966,676.583557 
	C568.584351,683.929504 566.515991,690.463135 560.599243,693.987915 
	C554.912842,697.375610 546.616943,696.432678 542.451721,691.925293 
	C537.963562,687.068420 537.698181,679.448364 541.880676,673.890198 
	C546.571289,667.656799 560.036011,666.059265 565.839966,676.583557 
z"/>
</svg>