<svg version="1.1" id="Layer_1" xmlns="http://www.w3.org/2000/svg" xmlns:xlink="http://www.w3.org/1999/xlink" x="0px" y="0px"
	 width="100%" viewBox="0 0 1000 1000" enable-background="new 0 0 1000 1000" xml:space="preserve">
<path fill="none" opacity="1.000000" stroke="none" 
	d="
M577.000000,1001.000000 
	C384.666656,1001.000000 192.833328,1001.000000 1.000000,1001.000000 
	C1.000000,667.666687 1.000000,334.333344 1.000000,1.000000 
	C334.333344,1.000000 667.666687,1.000000 1001.000000,1.000000 
	C1001.000000,334.333344 1001.000000,667.666687 1001.000000,1001.000000 
	C859.833313,1001.000000 718.666687,1001.000000 577.000000,1001.000000 
M459.500000,482.000000 
	C505.643036,482.000000 551.786072,481.996887 597.929138,482.011597 
	C599.752014,482.012177 601.577576,482.145691 603.397339,482.279663 
	C612.857788,482.976318 622.316772,483.693176 632.458557,484.454193 
	C630.303223,424.563324 604.843567,378.587799 552.327698,351.253693 
	C496.560974,322.227478 441.108398,327.337524 390.879944,365.402771 
	C352.125092,394.772827 334.017731,435.548981 333.692047,484.674286 
	C375.788116,480.204224 417.172485,482.607513 459.500000,482.000000 
M545.502563,491.999695 
	C540.837891,491.985107 536.171021,492.057251 531.508911,491.940216 
	C515.404907,491.535980 499.295471,490.529175 483.201019,490.739380 
	C455.112396,491.106201 427.030090,492.107208 398.951691,493.040161 
	C384.185364,493.530792 369.427002,494.338898 354.676910,495.205536 
	C347.929962,495.601929 341.211700,496.485718 334.482086,497.148315 
	C342.805603,586.248352 427.384064,647.659485 514.925049,628.960510 
	C584.617554,614.073975 630.327393,549.098267 630.415771,496.259155 
	C602.481995,494.841309 574.490967,493.420563 545.502563,491.999695 
M314.663574,637.987305 
	C313.183899,637.987305 311.704193,637.987305 310.575073,637.987305 
	C310.575073,660.801392 310.575073,683.262878 310.575073,705.765503 
	C315.155060,705.765503 319.915161,705.765503 324.135925,705.765503 
	C324.135925,696.166321 324.135925,686.805603 324.135925,677.299377 
	C331.151794,677.299377 338.060547,677.299377 344.923492,677.299377 
	C344.923492,686.947815 344.923492,696.303345 344.923492,705.821533 
	C349.273346,705.821533 354.058716,705.821533 358.430847,705.821533 
	C358.430847,683.172180 358.430847,660.710388 358.430847,638.267090 
	C353.807404,638.267090 349.083282,638.267090 344.882172,638.267090 
	C344.882172,647.560120 344.882172,656.582031 344.882172,665.710815 
	C337.824799,665.710815 330.905151,665.710815 324.073425,665.710815 
	C324.073425,656.401062 324.073425,647.374512 324.073425,637.987305 
	C321.551788,637.987305 318.576111,637.987305 314.663574,637.987305 
M340.078278,490.789154 
	C321.311462,492.842804 302.450775,494.278351 283.802216,497.110718 
	C261.810638,500.450806 239.837280,504.286224 218.180099,509.305237 
	C206.114578,512.101440 194.615265,517.512756 183.052689,522.217163 
	C178.814194,523.941650 174.846527,526.742493 172.532578,532.309875 
	C174.192612,531.820068 175.155426,531.834351 175.591751,531.362122 
	C181.399323,525.076904 188.967453,521.857056 196.736267,518.892761 
	C219.995789,510.017975 244.262360,505.379059 268.789337,502.059296 
	C292.909180,498.794617 317.058197,495.613434 341.278534,493.262451 
	C362.284027,491.223602 383.389587,489.873413 404.482758,489.160614 
	C435.271057,488.120148 466.095673,487.213989 496.890442,487.553680 
	C531.837341,487.939087 566.797668,489.225250 601.696777,491.133545 
	C628.196533,492.582550 654.688293,494.965881 681.037354,498.145752 
	C703.773987,500.889648 726.426575,504.732971 748.887512,509.232483 
	C767.132996,512.887634 785.384033,517.321777 800.880066,528.705811 
	C801.301880,529.015686 802.064453,528.861694 804.286499,529.091064 
	C802.180542,526.894653 801.262573,525.310974 799.893433,524.615723 
	C793.282959,521.258728 786.780518,517.486328 779.823975,515.047424 
	C742.793213,502.064484 704.052795,497.610199 665.388428,493.078369 
	C646.614319,490.877899 627.742615,489.293732 608.870544,488.198517 
	C583.622559,486.733398 558.338257,485.378082 533.057373,485.105682 
	C479.270386,484.526062 425.470673,484.485077 371.750366,488.018005 
	C361.477905,488.693604 351.225433,489.672607 340.078278,490.789154 
M395.179382,658.021606 
	C392.228943,658.349792 389.226898,658.435059 386.337006,659.048462 
	C373.989471,661.669128 364.973572,675.116089 367.714294,686.613831 
	C371.255402,701.469543 385.747192,709.993713 400.470520,705.881287 
	C413.898285,702.130798 422.008087,687.920105 417.529877,675.192627 
	C414.013641,665.199158 406.144714,660.137878 395.179382,658.021606 
M571.133362,699.654358 
	C576.592957,694.030396 580.167664,687.480652 578.552002,679.498291 
	C575.408447,663.967163 561.573914,655.426208 546.121338,659.014954 
	C535.126099,661.568604 525.454041,674.416199 527.087891,684.450928 
	C528.787598,694.890015 534.765625,701.953430 544.670776,705.428894 
	C554.262268,708.794434 562.883362,706.518066 571.133362,699.654358 
M620.765320,661.599854 
	C612.314392,656.487305 604.169495,656.886230 596.236633,662.820557 
	C593.479004,664.883484 590.539673,666.703369 587.591125,668.696594 
	C587.591125,680.770386 587.591125,693.250366 587.591125,705.808350 
	C591.891968,705.808350 596.351501,705.808350 600.508301,705.808350 
	C600.329224,703.841858 600.037964,702.054626 600.025757,700.265564 
	C599.973511,692.605164 599.994507,684.944336 600.006836,677.283630 
	C600.014526,672.543396 603.134033,669.477295 608.378723,669.013062 
	C613.502380,668.559570 618.726562,671.684143 618.867432,676.048218 
	C619.186401,685.929443 618.967834,695.828125 618.967834,705.818481 
	C622.891174,705.818481 627.351074,705.818481 631.003357,705.818481 
	C631.003357,697.873108 631.128296,690.102600 630.969116,682.337952 
	C630.802063,674.188904 628.263794,667.035828 620.765320,661.599854 
M512.444397,658.996582 
	C502.024139,658.996582 491.603851,658.996582 481.148010,658.996582 
	C481.148010,663.306946 481.148010,666.929993 481.148010,669.777710 
	C488.068176,669.777710 494.839874,669.777710 501.839935,669.777710 
	C492.799011,681.639893 483.809204,693.435059 474.395325,705.786621 
	C490.419067,705.786621 505.476227,705.786621 520.768127,705.786621 
	C520.768127,701.875000 520.768127,698.178711 520.768127,695.239014 
	C512.185791,695.239014 503.792206,695.239014 495.215454,695.239014 
	C504.342194,683.337646 513.360901,671.577271 523.008606,658.996582 
	C518.999451,658.996582 516.211121,658.996582 512.444397,658.996582 
M666.598694,667.083130 
	C666.598694,664.474060 666.598694,661.864929 666.598694,659.276123 
	C662.553406,658.823486 659.102295,658.324219 655.633179,658.072205 
	C647.835144,657.505676 641.463379,661.718445 639.565430,668.553650 
	C637.874817,674.641846 640.813904,679.661438 648.187866,683.477783 
	C651.266479,685.070923 654.467346,686.545776 657.237793,688.583862 
	C660.114685,690.700134 659.730713,695.056824 656.565247,696.377563 
	C654.373657,697.291992 651.559875,697.881958 649.348938,697.325684 
	C645.471863,696.350281 641.844055,694.384033 638.236694,692.884705 
	C638.236694,697.078186 638.236694,701.514893 638.236694,705.800110 
	C640.963684,706.052307 643.460266,706.640015 645.890442,706.436340 
	C651.582153,705.959351 657.734131,706.279114 662.811829,704.154297 
	C673.218628,699.799316 673.867737,686.707397 664.496155,680.478760 
	C661.771667,678.667969 658.444641,677.740784 655.796265,675.846130 
	C653.892883,674.484375 652.657898,672.188354 651.124756,670.309143 
	C653.569397,669.348022 656.035522,667.578430 658.452820,667.642883 
	C661.111694,667.713745 663.725647,669.471985 666.479004,670.541626 
	C666.522766,669.581726 666.560364,668.757385 666.598694,667.083130 
M453.789062,657.457642 
	C448.811493,659.418091 442.431885,658.488098 439.163330,665.861572 
	C439.026093,662.768921 438.950073,661.055664 438.866913,659.181763 
	C434.794617,659.181763 431.017609,659.181763 427.601074,659.181763 
	C427.601074,674.798401 427.601074,690.248901 427.601074,705.825195 
	C431.814819,705.825195 436.266693,705.825195 440.020355,705.825195 
	C440.020355,695.917786 439.628143,686.149597 440.312714,676.457520 
	C440.471863,674.203979 443.988434,671.617065 446.536438,670.290466 
	C448.436523,669.301270 451.265106,670.095520 453.974854,670.095520 
	C453.974854,666.225769 453.974854,662.252930 453.789062,657.457642 
M459.999329,686.498413 
	C459.999329,692.896484 459.999329,699.294617 459.999329,705.823975 
	C463.803314,705.823975 468.262451,705.823975 471.989685,705.823975 
	C471.989685,690.155701 471.989685,674.645386 471.989685,659.154785 
	C467.283936,659.154785 463.310638,659.154785 459.999329,659.154785 
	C459.999329,668.034241 459.999329,676.766663 459.999329,686.498413 
M465.688568,639.024536 
	C464.772827,639.391846 463.806488,639.667847 462.950012,640.142151 
	C459.057861,642.297424 457.990845,646.211548 460.291931,649.695557 
	C462.311554,652.753357 467.688324,653.945312 470.221497,651.342407 
	C471.744476,649.777405 473.384430,646.498840 472.709015,645.032898 
	C471.582977,642.588806 468.641510,640.981079 465.688568,639.024536 
z"/>
<path fill="#CDCDCD" opacity="1.000000" stroke="none" 
	d="
M459.000000,482.000000 
	C417.172485,482.607513 375.788116,480.204224 333.692047,484.674286 
	C334.017731,435.548981 352.125092,394.772827 390.879944,365.402771 
	C441.108398,327.337524 496.560974,322.227478 552.327698,351.253693 
	C604.843567,378.587799 630.303223,424.563324 632.458557,484.454193 
	C622.316772,483.693176 612.857788,482.976318 603.397339,482.279663 
	C601.577576,482.145691 599.752014,482.012177 597.929138,482.011597 
	C551.786072,481.996887 505.643036,482.000000 459.000000,482.000000 
z"/>
<path fill="#A1A1A1" opacity="1.000000" stroke="none" 
	d="
M546.001221,491.999756 
	C574.490967,493.420563 602.481995,494.841309 630.415771,496.259155 
	C630.327393,549.098267 584.617554,614.073975 514.925049,628.960510 
	C427.384064,647.659485 342.805603,586.248352 334.482086,497.148315 
	C341.211700,496.485718 347.929962,495.601929 354.676910,495.205536 
	C369.427002,494.338898 384.185364,493.530792 398.951691,493.040161 
	C427.030090,492.107208 455.112396,491.106201 483.201019,490.739380 
	C499.295471,490.529175 515.404907,491.535980 531.508911,491.940216 
	C536.171021,492.057251 540.837891,491.985107 546.001221,491.999756 
z"/>
<path fill="#5D5D5D" opacity="1.000000" stroke="none" 
	d="
M315.131989,637.987305 
	C318.576111,637.987305 321.551788,637.987305 324.073425,637.987305 
	C324.073425,647.374512 324.073425,656.401062 324.073425,665.710815 
	C330.905151,665.710815 337.824799,665.710815 344.882172,665.710815 
	C344.882172,656.582031 344.882172,647.560120 344.882172,638.267090 
	C349.083282,638.267090 353.807404,638.267090 358.430847,638.267090 
	C358.430847,660.710388 358.430847,683.172180 358.430847,705.821533 
	C354.058716,705.821533 349.273346,705.821533 344.923492,705.821533 
	C344.923492,696.303345 344.923492,686.947815 344.923492,677.299377 
	C338.060547,677.299377 331.151794,677.299377 324.135925,677.299377 
	C324.135925,686.805603 324.135925,696.166321 324.135925,705.765503 
	C319.915161,705.765503 315.155060,705.765503 310.575073,705.765503 
	C310.575073,683.262878 310.575073,660.801392 310.575073,637.987305 
	C311.704193,637.987305 313.183899,637.987305 315.131989,637.987305 
z"/>
<path fill="#626262" opacity="1.000000" stroke="none" 
	d="
M340.520996,490.650391 
	C351.225433,489.672607 361.477905,488.693604 371.750366,488.018005 
	C425.470673,484.485077 479.270386,484.526062 533.057373,485.105682 
	C558.338257,485.378082 583.622559,486.733398 608.870544,488.198517 
	C627.742615,489.293732 646.614319,490.877899 665.388428,493.078369 
	C704.052795,497.610199 742.793213,502.064484 779.823975,515.047424 
	C786.780518,517.486328 793.282959,521.258728 799.893433,524.615723 
	C801.262573,525.310974 802.180542,526.894653 804.286499,529.091064 
	C802.064453,528.861694 801.301880,529.015686 800.880066,528.705811 
	C785.384033,517.321777 767.132996,512.887634 748.887512,509.232483 
	C726.426575,504.732971 703.773987,500.889648 681.037354,498.145752 
	C654.688293,494.965881 628.196533,492.582550 601.696777,491.133545 
	C566.797668,489.225250 531.837341,487.939087 496.890442,487.553680 
	C466.095673,487.213989 435.271057,488.120148 404.482758,489.160614 
	C383.389587,489.873413 362.284027,491.223602 341.278534,493.262451 
	C317.058197,495.613434 292.909180,498.794617 268.789337,502.059296 
	C244.262360,505.379059 219.995789,510.017975 196.736267,518.892761 
	C188.967453,521.857056 181.399323,525.076904 175.591751,531.362122 
	C175.155426,531.834351 174.192612,531.820068 172.532578,532.309875 
	C174.846527,526.742493 178.814194,523.941650 183.052689,522.217163 
	C194.615265,517.512756 206.114578,512.101440 218.180099,509.305237 
	C239.837280,504.286224 261.810638,500.450806 283.802216,497.110718 
	C302.450775,494.278351 321.311462,492.842804 340.520996,490.650391 
z"/>
<path fill="#5B5B5B" opacity="1.000000" stroke="none" 
	d="
M395.605164,658.109375 
	C406.144714,660.137878 414.013641,665.199158 417.529877,675.192627 
	C422.008087,687.920105 413.898285,702.130798 400.470520,705.881287 
	C385.747192,709.993713 371.255402,701.469543 367.714294,686.613831 
	C364.973572,675.116089 373.989471,661.669128 386.337006,659.048462 
	C389.226898,658.435059 392.228943,658.349792 395.605164,658.109375 
M398.193268,669.938904 
	C391.442627,667.887390 385.374634,669.525574 381.609222,674.416138 
	C378.336060,678.667542 377.985382,684.681946 380.744568,689.247375 
	C383.801666,694.305786 389.885590,697.007507 395.734833,695.904175 
	C401.163574,694.880188 406.153748,690.122192 406.965485,685.195923 
	C408.043213,678.655640 405.632812,674.125061 398.193268,669.938904 
z"/>
<path fill="#5B5B5B" opacity="1.000000" stroke="none" 
	d="
M570.828186,699.842834 
	C562.883362,706.518066 554.262268,708.794434 544.670776,705.428894 
	C534.765625,701.953430 528.787598,694.890015 527.087891,684.450928 
	C525.454041,674.416199 535.126099,661.568604 546.121338,659.014954 
	C561.573914,655.426208 575.408447,663.967163 578.552002,679.498291 
	C580.167664,687.480652 576.592957,694.030396 570.828186,699.842834 
M551.744995,669.000671 
	C542.481567,670.833435 537.971375,676.427063 539.009888,684.794983 
	C539.835693,691.448486 546.789368,696.533386 554.330627,695.998230 
	C561.712585,695.474426 567.088562,689.588196 567.001221,682.125183 
	C566.911743,674.484009 561.285706,669.362000 551.744995,669.000671 
z"/>
<path fill="#5A5A5A" opacity="1.000000" stroke="none" 
	d="
M621.081055,661.789490 
	C628.263794,667.035828 630.802063,674.188904 630.969116,682.337952 
	C631.128296,690.102600 631.003357,697.873108 631.003357,705.818481 
	C627.351074,705.818481 622.891174,705.818481 618.967834,705.818481 
	C618.967834,695.828125 619.186401,685.929443 618.867432,676.048218 
	C618.726562,671.684143 613.502380,668.559570 608.378723,669.013062 
	C603.134033,669.477295 600.014526,672.543396 600.006836,677.283630 
	C599.994507,684.944336 599.973511,692.605164 600.025757,700.265564 
	C600.037964,702.054626 600.329224,703.841858 600.508301,705.808350 
	C596.351501,705.808350 591.891968,705.808350 587.591125,705.808350 
	C587.591125,693.250366 587.591125,680.770386 587.591125,668.696594 
	C590.539673,666.703369 593.479004,664.883484 596.236633,662.820557 
	C604.169495,656.886230 612.314392,656.487305 621.081055,661.789490 
z"/>
<path fill="#5A5A5A" opacity="1.000000" stroke="none" 
	d="
M512.933594,658.996582 
	C516.211121,658.996582 518.999451,658.996582 523.008606,658.996582 
	C513.360901,671.577271 504.342194,683.337646 495.215454,695.239014 
	C503.792206,695.239014 512.185791,695.239014 520.768127,695.239014 
	C520.768127,698.178711 520.768127,701.875000 520.768127,705.786621 
	C505.476227,705.786621 490.419067,705.786621 474.395325,705.786621 
	C483.809204,693.435059 492.799011,681.639893 501.839935,669.777710 
	C494.839874,669.777710 488.068176,669.777710 481.148010,669.777710 
	C481.148010,666.929993 481.148010,663.306946 481.148010,658.996582 
	C491.603851,658.996582 502.024139,658.996582 512.933594,658.996582 
z"/>
<path fill="#5D5D5D" opacity="1.000000" stroke="none" 
	d="
M666.598328,667.508057 
	C666.560364,668.757385 666.522766,669.581726 666.479004,670.541626 
	C663.725647,669.471985 661.111694,667.713745 658.452820,667.642883 
	C656.035522,667.578430 653.569397,669.348022 651.124756,670.309143 
	C652.657898,672.188354 653.892883,674.484375 655.796265,675.846130 
	C658.444641,677.740784 661.771667,678.667969 664.496155,680.478760 
	C673.867737,686.707397 673.218628,699.799316 662.811829,704.154297 
	C657.734131,706.279114 651.582153,705.959351 645.890442,706.436340 
	C643.460266,706.640015 640.963684,706.052307 638.236694,705.800110 
	C638.236694,701.514893 638.236694,697.078186 638.236694,692.884705 
	C641.844055,694.384033 645.471863,696.350281 649.348938,697.325684 
	C651.559875,697.881958 654.373657,697.291992 656.565247,696.377563 
	C659.730713,695.056824 660.114685,690.700134 657.237793,688.583862 
	C654.467346,686.545776 651.266479,685.070923 648.187866,683.477783 
	C640.813904,679.661438 637.874817,674.641846 639.565430,668.553650 
	C641.463379,661.718445 647.835144,657.505676 655.633179,658.072205 
	C659.102295,658.324219 662.553406,658.823486 666.598694,659.276123 
	C666.598694,661.864929 666.598694,664.474060 666.598328,667.508057 
z"/>
<path fill="#5A5A5A" opacity="1.000000" stroke="none" 
	d="
M453.881958,657.868896 
	C453.974854,662.252930 453.974854,666.225769 453.974854,670.095520 
	C451.265106,670.095520 448.436523,669.301270 446.536438,670.290466 
	C443.988434,671.617065 440.471863,674.203979 440.312714,676.457520 
	C439.628143,686.149597 440.020355,695.917786 440.020355,705.825195 
	C436.266693,705.825195 431.814819,705.825195 427.601074,705.825195 
	C427.601074,690.248901 427.601074,674.798401 427.601074,659.181763 
	C431.017609,659.181763 434.794617,659.181763 438.866913,659.181763 
	C438.950073,661.055664 439.026093,662.768921 439.163330,665.861572 
	C442.431885,658.488098 448.811493,659.418091 453.881958,657.868896 
z"/>
<path fill="#595959" opacity="1.000000" stroke="none" 
	d="
M459.999329,685.998779 
	C459.999329,676.766663 459.999329,668.034241 459.999329,659.154785 
	C463.310638,659.154785 467.283936,659.154785 471.989685,659.154785 
	C471.989685,674.645386 471.989685,690.155701 471.989685,705.823975 
	C468.262451,705.823975 463.803314,705.823975 459.999329,705.823975 
	C459.999329,699.294617 459.999329,692.896484 459.999329,685.998779 
z"/>
<path fill="#5D5D5D" opacity="1.000000" stroke="none" 
	d="
M466.076477,639.022888 
	C468.641510,640.981079 471.582977,642.588806 472.709015,645.032898 
	C473.384430,646.498840 471.744476,649.777405 470.221497,651.342407 
	C467.688324,653.945312 462.311554,652.753357 460.291931,649.695557 
	C457.990845,646.211548 459.057861,642.297424 462.950012,640.142151 
	C463.806488,639.667847 464.772827,639.391846 466.076477,639.022888 
z"/>
<path fill="#FDFDFD" opacity="1.000000" stroke="none" 
	d="
M398.574951,670.040649 
	C405.632812,674.125061 408.043213,678.655640 406.965485,685.195923 
	C406.153748,690.122192 401.163574,694.880188 395.734833,695.904175 
	C389.885590,697.007507 383.801666,694.305786 380.744568,689.247375 
	C377.985382,684.681946 378.336060,678.667542 381.609222,674.416138 
	C385.374634,669.525574 391.442627,667.887390 398.574951,670.040649 
z"/>
<path fill="#FDFDFD" opacity="1.000000" stroke="none" 
	d="
M552.164062,668.999756 
	C561.285706,669.362000 566.911743,674.484009 567.001221,682.125183 
	C567.088562,689.588196 561.712585,695.474426 554.330627,695.998230 
	C546.789368,696.533386 539.835693,691.448486 539.009888,684.794983 
	C537.971375,676.427063 542.481567,670.833435 552.164062,668.999756 
z"/>
</svg>