<svg version="1.1" id="Layer_1" xmlns="http://www.w3.org/2000/svg" xmlns:xlink="http://www.w3.org/1999/xlink" x="0px" y="0px"
	 width="100%" viewBox="0 0 1000 1000" enable-background="new 0 0 1000 1000" xml:space="preserve">
<path fill="none" opacity="1.000000" stroke="none" 
	d="
M582.000000,1001.000000 
	C388.000000,1001.000000 194.500000,1001.000000 1.000000,1001.000000 
	C1.000000,667.666687 1.000000,334.333344 1.000000,1.000000 
	C334.333344,1.000000 667.666687,1.000000 1001.000000,1.000000 
	C1001.000000,334.333344 1001.000000,667.666687 1001.000000,1001.000000 
	C861.500000,1001.000000 722.000000,1001.000000 582.000000,1001.000000 
M420.336670,488.983276 
	C424.815857,488.656433 429.294098,488.062958 433.774414,488.046783 
	C459.395569,487.954193 485.020447,487.745789 510.637787,488.070862 
	C534.430908,488.372742 558.228882,489.000427 582.000977,490.031555 
	C602.268738,490.910675 622.522583,492.320465 642.747498,493.934265 
	C678.289795,496.770294 713.660034,501.041077 748.457764,509.052063 
	C766.299255,513.159485 784.288940,517.083008 799.732361,527.849854 
	C800.174255,528.157959 800.898926,528.060608 801.491760,528.152344 
	C801.756409,527.700439 802.021118,527.248535 802.285828,526.796631 
	C799.645996,524.929932 797.170593,522.754150 794.339355,521.247131 
	C777.056274,512.047974 758.187927,507.366425 739.175476,504.179657 
	C709.976135,499.285431 680.620117,494.922821 651.161926,492.084991 
	C619.230957,489.009003 587.106628,487.940094 555.067078,485.987946 
	C554.070740,485.927246 553.079773,485.779175 552.086365,485.671814 
	C560.308533,485.000000 568.457520,484.920471 576.604492,485.016541 
	C593.751465,485.218658 610.898193,485.473724 628.043274,485.799408 
	C631.887512,485.872406 633.230713,483.747681 632.913452,480.476807 
	C631.855530,469.567444 631.664673,458.430603 629.212158,447.827209 
	C622.319458,418.026031 607.404419,392.684723 584.616638,372.006592 
	C572.782166,361.267731 559.710144,352.608215 545.252380,345.883881 
	C523.636169,335.830109 500.884888,332.473541 477.188843,332.866760 
	C455.046692,333.234161 434.176971,338.481628 414.688995,348.351501 
	C382.008759,364.902710 358.210114,390.241760 344.016418,424.183319 
	C336.616333,441.879120 332.532806,460.332947 333.026794,479.638031 
	C333.168610,485.181458 334.573517,486.288513 340.112091,485.688263 
	C343.249969,485.348206 346.410767,485.037689 349.561951,485.030670 
	C373.723785,484.976898 397.885803,485.000977 422.047760,485.000854 
	C423.649048,485.000854 425.250336,485.000854 426.851624,485.000854 
	C402.981079,486.624115 379.178619,487.299377 355.488373,489.302429 
	C328.305084,491.600800 301.158356,494.600403 274.112885,498.180176 
	C249.344208,501.458588 224.715378,505.960114 201.040787,514.276245 
	C193.712753,516.850281 186.763535,520.611755 179.877075,524.273621 
	C177.524841,525.524475 175.895248,528.134338 173.935486,530.123230 
	C180.330353,527.330383 185.867355,523.609558 191.879089,520.969849 
	C213.884857,511.307556 237.313965,506.558258 260.884766,503.207855 
	C290.194885,499.041595 319.654449,495.738525 349.139618,493.051788 
	C372.479553,490.925018 395.955414,490.289917 420.336670,488.983276 
M375.453766,493.997223 
	C364.832123,494.676178 354.214874,495.436432 343.587463,496.008209 
	C335.125275,496.463501 333.911774,497.647308 335.320068,505.902832 
	C342.703217,549.183411 364.467651,583.296082 401.063080,607.620911 
	C434.423309,629.795349 471.190491,636.790527 510.371979,629.728516 
	C547.847595,622.973938 578.075378,603.583496 601.390625,573.688477 
	C617.030823,553.634521 626.836609,530.826782 630.735229,505.601868 
	C631.994690,497.452637 630.931885,496.453552 622.718445,495.979919 
	C602.134094,494.792908 581.577576,492.890686 560.979309,492.235077 
	C532.895691,491.341217 504.777130,490.772003 476.685669,491.100098 
	C443.253387,491.490540 409.833893,492.979462 375.453766,493.997223 
M311.000000,662.500061 
	C311.000000,676.755615 311.000000,691.011169 311.000000,705.990356 
	C313.614349,705.990356 316.072174,705.846863 318.506866,706.022766 
	C322.518066,706.312500 324.278046,704.821655 324.076019,700.587036 
	C323.806702,694.941711 324.150330,689.269409 323.971619,683.616821 
	C323.826508,679.028381 325.566589,676.715942 330.367950,676.990295 
	C333.187866,677.151367 336.029602,677.132385 338.852234,676.998474 
	C343.384827,676.783508 345.125519,678.953674 345.017792,683.336914 
	C344.870636,689.324280 344.806183,695.327698 345.118286,701.302673 
	C345.199432,702.855774 346.618195,705.429810 347.758301,705.630798 
	C351.080383,706.216553 354.572388,705.838745 358.165405,705.838745 
	C358.165405,683.044006 358.165405,660.979004 358.165405,638.012634 
	C355.435852,638.012634 352.831787,638.140808 350.245270,637.982239 
	C346.464447,637.750488 344.639923,639.163635 344.949158,643.161072 
	C345.166687,645.973694 345.020905,648.816345 344.995972,651.645264 
	C344.857880,667.325073 346.954590,665.965454 329.897827,666.005310 
	C325.613373,666.015320 323.912445,664.066406 323.994263,659.913696 
	C324.108948,654.091431 324.208557,648.253540 323.868683,642.448364 
	C323.781433,640.957947 322.201233,638.536072 320.995697,638.325684 
	C317.702728,637.751099 314.243713,638.127930 311.000000,638.127930 
	C311.000000,646.558655 311.000000,654.029480 311.000000,662.500061 
M367.714813,678.394409 
	C366.020142,688.069763 371.007721,698.391846 379.741791,703.284851 
	C389.030334,708.488403 401.987518,707.582642 409.301636,701.099121 
	C416.030426,695.134583 420.210266,687.969299 418.300323,678.631775 
	C415.889069,666.843384 405.859436,658.618774 393.775177,658.115234 
	C381.863525,657.618896 371.678864,665.288452 367.714813,678.394409 
M537.101379,663.516418 
	C530.334534,669.429382 525.847839,676.522766 527.585999,685.840454 
	C530.938782,703.813721 551.431824,712.543701 566.992676,702.872925 
	C575.509949,697.579590 580.329468,686.905701 578.203064,678.044800 
	C573.898804,660.108521 554.245789,652.841370 537.101379,663.516418 
M603.751648,658.985229 
	C599.036804,661.767822 594.244446,664.431946 589.668213,667.426270 
	C588.672729,668.077637 587.964355,669.905884 587.949158,671.201782 
	C587.817017,682.497803 587.872925,693.796082 587.872925,705.562805 
	C589.562805,705.711548 591.167236,705.949219 592.775391,705.977783 
	C599.859741,706.103882 600.001160,705.936951 600.005493,698.814331 
	C600.009766,691.815491 599.666565,684.787781 600.225830,677.833069 
	C600.429382,675.302002 602.198364,671.988831 604.285522,670.684387 
	C611.011353,666.480896 618.531372,670.705139 618.861816,678.662537 
	C619.172729,686.149048 618.824707,693.662354 619.109070,701.150879 
	C619.169250,702.736206 620.489624,705.378540 621.618164,705.606201 
	C624.700012,706.227783 627.989380,705.820068 630.939819,705.820068 
	C630.939819,696.822510 631.209717,688.828613 630.881714,680.859314 
	C630.263306,665.835388 618.400818,656.034424 603.751648,658.985229 
M510.624908,675.140503 
	C514.374390,670.218689 518.123901,665.296936 521.873413,660.375122 
	C521.578857,659.916748 521.284241,659.458374 520.989685,659.000000 
	C517.206299,659.000000 513.422974,658.991150 509.639618,659.001892 
	C501.649445,659.024597 493.657928,658.979248 485.669586,659.115112 
	C480.744019,659.198853 481.056000,662.883606 481.041046,666.300659 
	C481.022583,670.520081 483.782715,669.293457 486.245300,669.206604 
	C490.951691,669.040588 495.668121,669.158386 500.380371,669.158386 
	C500.578247,669.654480 500.776093,670.150574 500.973938,670.646667 
	C496.746643,676.286621 492.537872,681.940552 488.286835,687.562561 
	C483.957367,693.288330 479.586304,698.982544 475.233429,704.690613 
	C475.505768,705.127075 475.778137,705.563538 476.050476,706.000000 
	C483.332489,706.000000 490.614502,706.007385 497.896515,705.997620 
	C503.889313,705.989624 509.882141,705.956421 515.874939,705.943237 
	C521.047607,705.931824 521.006042,702.358093 520.965210,698.656677 
	C520.918274,694.401672 518.135559,695.753479 515.713318,695.802551 
	C509.364594,695.931152 503.011566,695.845947 496.660248,695.845947 
	C496.478638,695.316589 496.297028,694.787231 496.115417,694.257874 
	C500.810455,688.078003 505.505524,681.898193 510.624908,675.140503 
M651.513367,671.341309 
	C655.673767,662.968323 661.290100,669.762390 666.204529,670.210999 
	C668.307434,660.991028 666.643921,658.649597 657.822876,658.110596 
	C656.497864,658.029602 655.156311,658.026428 653.833679,658.130188 
	C646.221741,658.727478 640.735413,662.892517 639.397888,669.034180 
	C638.173401,674.656311 641.343811,679.842224 648.259705,683.611938 
	C651.028076,685.120911 654.018616,686.376770 656.443665,688.325623 
	C660.253357,691.387329 659.279236,695.662292 654.603455,696.911621 
	C652.752686,697.406189 650.585571,697.533142 648.747253,697.079346 
	C645.446533,696.264526 642.285461,694.884399 638.184082,693.427124 
	C638.184082,697.073120 637.990356,700.319580 638.308655,703.515015 
	C638.397766,704.409607 639.936829,705.770874 640.911072,705.863586 
	C645.853943,706.333679 650.894775,707.076599 655.780029,706.565247 
	C664.487793,705.653748 669.630737,700.737488 670.720703,693.534912 
	C671.665405,687.292114 668.153381,682.298157 660.435486,678.135315 
	C657.312439,676.450806 654.557739,674.083313 651.513367,671.341309 
M428.000000,675.511902 
	C428.000000,685.435852 428.000000,695.359802 428.000000,705.662842 
	C429.778839,705.780212 431.403809,705.963074 433.030670,705.981628 
	C439.837341,706.059265 439.994751,705.879578 440.006500,699.079346 
	C440.017975,692.424988 439.914642,685.766907 440.103638,679.117371 
	C440.247375,674.061646 443.182800,670.847595 447.770508,670.148071 
	C453.936981,669.207764 455.015625,667.844971 453.800690,661.400757 
	C453.594849,660.308899 451.373383,658.591675 450.485626,658.808838 
	C446.759125,659.720276 443.185547,661.256958 439.451965,662.602112 
	C436.916351,658.564575 433.927216,657.837219 428.000000,660.045105 
	C428.000000,664.905945 428.000000,669.712646 428.000000,675.511902 
M459.988525,698.138916 
	C459.988525,700.557373 459.988525,702.975769 459.988525,705.988647 
	C462.412720,705.988647 464.548920,705.845642 466.659119,706.019043 
	C470.810272,706.360229 472.148834,704.526001 472.077637,700.464661 
	C471.873962,688.850830 472.044495,677.230957 471.963287,665.614258 
	C471.923370,659.903564 470.972107,659.046997 465.172333,659.035950 
	C463.414948,659.032593 461.657013,659.295776 459.994751,659.429260 
	C459.994751,672.385681 459.994751,684.806580 459.988525,698.138916 
M472.682190,647.104797 
	C473.039459,642.376648 470.430206,639.838562 466.124542,639.494995 
	C462.574432,639.211731 460.160431,641.592590 459.543030,645.025269 
	C458.896942,648.617432 460.891357,651.195190 464.206238,652.229675 
	C468.201721,653.476501 470.792603,651.296265 472.682190,647.104797 
z"/>
<path fill="#000000" opacity="1.000000" stroke="none" 
	d="
M419.853790,488.987854 
	C395.955414,490.289917 372.479553,490.925018 349.139618,493.051788 
	C319.654449,495.738525 290.194885,499.041595 260.884766,503.207855 
	C237.313965,506.558258 213.884857,511.307556 191.879089,520.969849 
	C185.867355,523.609558 180.330353,527.330383 173.935486,530.123230 
	C175.895248,528.134338 177.524841,525.524475 179.877075,524.273621 
	C186.763535,520.611755 193.712753,516.850281 201.040787,514.276245 
	C224.715378,505.960114 249.344208,501.458588 274.112885,498.180176 
	C301.158356,494.600403 328.305084,491.600800 355.488373,489.302429 
	C379.178619,487.299377 402.981079,486.624115 426.851624,485.000854 
	C425.250336,485.000854 423.649048,485.000854 422.047760,485.000854 
	C397.885803,485.000977 373.723785,484.976898 349.561951,485.030670 
	C346.410767,485.037689 343.249969,485.348206 340.112091,485.688263 
	C334.573517,486.288513 333.168610,485.181458 333.026794,479.638031 
	C332.532806,460.332947 336.616333,441.879120 344.016418,424.183319 
	C358.210114,390.241760 382.008759,364.902710 414.688995,348.351501 
	C434.176971,338.481628 455.046692,333.234161 477.188843,332.866760 
	C500.884888,332.473541 523.636169,335.830109 545.252380,345.883881 
	C559.710144,352.608215 572.782166,361.267731 584.616638,372.006592 
	C607.404419,392.684723 622.319458,418.026031 629.212158,447.827209 
	C631.664673,458.430603 631.855530,469.567444 632.913452,480.476807 
	C633.230713,483.747681 631.887512,485.872406 628.043274,485.799408 
	C610.898193,485.473724 593.751465,485.218658 576.604492,485.016541 
	C568.457520,484.920471 560.308533,485.000000 552.086365,485.671814 
	C553.079773,485.779175 554.070740,485.927246 555.067078,485.987946 
	C587.106628,487.940094 619.230957,489.009003 651.161926,492.084991 
	C680.620117,494.922821 709.976135,499.285431 739.175476,504.179657 
	C758.187927,507.366425 777.056274,512.047974 794.339355,521.247131 
	C797.170593,522.754150 799.645996,524.929932 802.285828,526.796631 
	C802.021118,527.248535 801.756409,527.700439 801.491760,528.152344 
	C800.898926,528.060608 800.174255,528.157959 799.732361,527.849854 
	C784.288940,517.083008 766.299255,513.159485 748.457764,509.052063 
	C713.660034,501.041077 678.289795,496.770294 642.747498,493.934265 
	C622.522583,492.320465 602.268738,490.910675 582.000977,490.031555 
	C558.228882,489.000427 534.430908,488.372742 510.637787,488.070862 
	C485.020447,487.745789 459.395569,487.954193 433.774414,488.046783 
	C429.294098,488.062958 424.815857,488.656433 419.853790,488.987854 
z"/>
<path fill="#000000" opacity="1.000000" stroke="none" 
	d="
M375.931335,493.994812 
	C409.833893,492.979462 443.253387,491.490540 476.685669,491.100098 
	C504.777130,490.772003 532.895691,491.341217 560.979309,492.235077 
	C581.577576,492.890686 602.134094,494.792908 622.718445,495.979919 
	C630.931885,496.453552 631.994690,497.452637 630.735229,505.601868 
	C626.836609,530.826782 617.030823,553.634521 601.390625,573.688477 
	C578.075378,603.583496 547.847595,622.973938 510.371979,629.728516 
	C471.190491,636.790527 434.423309,629.795349 401.063080,607.620911 
	C364.467651,583.296082 342.703217,549.183411 335.320068,505.902832 
	C333.911774,497.647308 335.125275,496.463501 343.587463,496.008209 
	C354.214874,495.436432 364.832123,494.676178 375.931335,493.994812 
z"/>
<path fill="#000000" opacity="1.000000" stroke="none" 
	d="
M311.000000,662.000122 
	C311.000000,654.029480 311.000000,646.558655 311.000000,638.127930 
	C314.243713,638.127930 317.702728,637.751099 320.995697,638.325684 
	C322.201233,638.536072 323.781433,640.957947 323.868683,642.448364 
	C324.208557,648.253540 324.108948,654.091431 323.994263,659.913696 
	C323.912445,664.066406 325.613373,666.015320 329.897827,666.005310 
	C346.954590,665.965454 344.857880,667.325073 344.995972,651.645264 
	C345.020905,648.816345 345.166687,645.973694 344.949158,643.161072 
	C344.639923,639.163635 346.464447,637.750488 350.245270,637.982239 
	C352.831787,638.140808 355.435852,638.012634 358.165405,638.012634 
	C358.165405,660.979004 358.165405,683.044006 358.165405,705.838745 
	C354.572388,705.838745 351.080383,706.216553 347.758301,705.630798 
	C346.618195,705.429810 345.199432,702.855774 345.118286,701.302673 
	C344.806183,695.327698 344.870636,689.324280 345.017792,683.336914 
	C345.125519,678.953674 343.384827,676.783508 338.852234,676.998474 
	C336.029602,677.132385 333.187866,677.151367 330.367950,676.990295 
	C325.566589,676.715942 323.826508,679.028381 323.971619,683.616821 
	C324.150330,689.269409 323.806702,694.941711 324.076019,700.587036 
	C324.278046,704.821655 322.518066,706.312500 318.506866,706.022766 
	C316.072174,705.846863 313.614349,705.990356 311.000000,705.990356 
	C311.000000,691.011169 311.000000,676.755615 311.000000,662.000122 
z"/>
<path fill="#000000" opacity="1.000000" stroke="none" 
	d="
M367.807526,677.997437 
	C371.678864,665.288452 381.863525,657.618896 393.775177,658.115234 
	C405.859436,658.618774 415.889069,666.843384 418.300323,678.631775 
	C420.210266,687.969299 416.030426,695.134583 409.301636,701.099121 
	C401.987518,707.582642 389.030334,708.488403 379.741791,703.284851 
	C371.007721,698.391846 366.020142,688.069763 367.807526,677.997437 
M385.065491,693.603699 
	C395.013947,698.582336 405.526703,694.231995 406.823761,684.599854 
	C407.707916,678.033936 404.291168,672.276672 398.164642,670.009155 
	C391.542969,667.558289 384.350922,669.992310 380.816162,675.880249 
	C377.358978,681.638977 378.652496,687.803467 385.065491,693.603699 
z"/>
<path fill="#000000" opacity="1.000000" stroke="none" 
	d="
M537.380249,663.284546 
	C554.245789,652.841370 573.898804,660.108521 578.203064,678.044800 
	C580.329468,686.905701 575.509949,697.579590 566.992676,702.872925 
	C551.431824,712.543701 530.938782,703.813721 527.585999,685.840454 
	C525.847839,676.522766 530.334534,669.429382 537.380249,663.284546 
M539.083313,681.684937 
	C539.456604,690.776489 545.350220,696.396545 553.967102,695.877747 
	C561.910034,695.399597 567.478638,689.094666 566.893372,681.242249 
	C566.418396,674.871033 561.152466,669.760986 554.433167,669.150879 
	C546.739502,668.452332 540.951355,672.881775 539.083313,681.684937 
z"/>
<path fill="#000000" opacity="1.000000" stroke="none" 
	d="
M604.140503,658.870789 
	C618.400818,656.034424 630.263306,665.835388 630.881714,680.859314 
	C631.209717,688.828613 630.939819,696.822510 630.939819,705.820068 
	C627.989380,705.820068 624.700012,706.227783 621.618164,705.606201 
	C620.489624,705.378540 619.169250,702.736206 619.109070,701.150879 
	C618.824707,693.662354 619.172729,686.149048 618.861816,678.662537 
	C618.531372,670.705139 611.011353,666.480896 604.285522,670.684387 
	C602.198364,671.988831 600.429382,675.302002 600.225830,677.833069 
	C599.666565,684.787781 600.009766,691.815491 600.005493,698.814331 
	C600.001160,705.936951 599.859741,706.103882 592.775391,705.977783 
	C591.167236,705.949219 589.562805,705.711548 587.872925,705.562805 
	C587.872925,693.796082 587.817017,682.497803 587.949158,671.201782 
	C587.964355,669.905884 588.672729,668.077637 589.668213,667.426270 
	C594.244446,664.431946 599.036804,661.767822 604.140503,658.870789 
z"/>
<path fill="#000000" opacity="1.000000" stroke="none" 
	d="
M510.412750,675.429443 
	C505.505524,681.898193 500.810455,688.078003 496.115417,694.257874 
	C496.297028,694.787231 496.478638,695.316589 496.660248,695.845947 
	C503.011566,695.845947 509.364594,695.931152 515.713318,695.802551 
	C518.135559,695.753479 520.918274,694.401672 520.965210,698.656677 
	C521.006042,702.358093 521.047607,705.931824 515.874939,705.943237 
	C509.882141,705.956421 503.889313,705.989624 497.896515,705.997620 
	C490.614502,706.007385 483.332489,706.000000 476.050476,706.000000 
	C475.778137,705.563538 475.505768,705.127075 475.233429,704.690613 
	C479.586304,698.982544 483.957367,693.288330 488.286835,687.562561 
	C492.537872,681.940552 496.746643,676.286621 500.973938,670.646667 
	C500.776093,670.150574 500.578247,669.654480 500.380371,669.158386 
	C495.668121,669.158386 490.951691,669.040588 486.245300,669.206604 
	C483.782715,669.293457 481.022583,670.520081 481.041046,666.300659 
	C481.056000,662.883606 480.744019,659.198853 485.669586,659.115112 
	C493.657928,658.979248 501.649445,659.024597 509.639618,659.001892 
	C513.422974,658.991150 517.206299,659.000000 520.989685,659.000000 
	C521.284241,659.458374 521.578857,659.916748 521.873413,660.375122 
	C518.123901,665.296936 514.374390,670.218689 510.412750,675.429443 
z"/>
<path fill="#000000" opacity="1.000000" stroke="none" 
	d="
M651.574402,671.683960 
	C654.557739,674.083313 657.312439,676.450806 660.435486,678.135315 
	C668.153381,682.298157 671.665405,687.292114 670.720703,693.534912 
	C669.630737,700.737488 664.487793,705.653748 655.780029,706.565247 
	C650.894775,707.076599 645.853943,706.333679 640.911072,705.863586 
	C639.936829,705.770874 638.397766,704.409607 638.308655,703.515015 
	C637.990356,700.319580 638.184082,697.073120 638.184082,693.427124 
	C642.285461,694.884399 645.446533,696.264526 648.747253,697.079346 
	C650.585571,697.533142 652.752686,697.406189 654.603455,696.911621 
	C659.279236,695.662292 660.253357,691.387329 656.443665,688.325623 
	C654.018616,686.376770 651.028076,685.120911 648.259705,683.611938 
	C641.343811,679.842224 638.173401,674.656311 639.397888,669.034180 
	C640.735413,662.892517 646.221741,658.727478 653.833679,658.130188 
	C655.156311,658.026428 656.497864,658.029602 657.822876,658.110596 
	C666.643921,658.649597 668.307434,660.991028 666.204529,670.210999 
	C661.290100,669.762390 655.673767,662.968323 651.574402,671.683960 
z"/>
<path fill="#000000" opacity="1.000000" stroke="none" 
	d="
M428.000000,675.015625 
	C428.000000,669.712646 428.000000,664.905945 428.000000,660.045105 
	C433.927216,657.837219 436.916351,658.564575 439.451965,662.602112 
	C443.185547,661.256958 446.759125,659.720276 450.485626,658.808838 
	C451.373383,658.591675 453.594849,660.308899 453.800690,661.400757 
	C455.015625,667.844971 453.936981,669.207764 447.770508,670.148071 
	C443.182800,670.847595 440.247375,674.061646 440.103638,679.117371 
	C439.914642,685.766907 440.017975,692.424988 440.006500,699.079346 
	C439.994751,705.879578 439.837341,706.059265 433.030670,705.981628 
	C431.403809,705.963074 429.778839,705.780212 428.000000,705.662842 
	C428.000000,695.359802 428.000000,685.435852 428.000000,675.015625 
z"/>
<path fill="#000000" opacity="1.000000" stroke="none" 
	d="
M459.991638,697.683228 
	C459.994751,684.806580 459.994751,672.385681 459.994751,659.429260 
	C461.657013,659.295776 463.414948,659.032593 465.172333,659.035950 
	C470.972107,659.046997 471.923370,659.903564 471.963287,665.614258 
	C472.044495,677.230957 471.873962,688.850830 472.077637,700.464661 
	C472.148834,704.526001 470.810272,706.360229 466.659119,706.019043 
	C464.548920,705.845642 462.412720,705.988647 459.988525,705.988647 
	C459.988525,702.975769 459.988525,700.557373 459.991638,697.683228 
z"/>
<path fill="#000000" opacity="1.000000" stroke="none" 
	d="
M472.597382,647.471436 
	C470.792603,651.296265 468.201721,653.476501 464.206238,652.229675 
	C460.891357,651.195190 458.896942,648.617432 459.543030,645.025269 
	C460.160431,641.592590 462.574432,639.211731 466.124542,639.494995 
	C470.430206,639.838562 473.039459,642.376648 472.597382,647.471436 
z"/>
<path fill="#1B1B1B" opacity="1.000000" stroke="none" 
	d="
M384.755646,693.390930 
	C378.652496,687.803467 377.358978,681.638977 380.816162,675.880249 
	C384.350922,669.992310 391.542969,667.558289 398.164642,670.009155 
	C404.291168,672.276672 407.707916,678.033936 406.823761,684.599854 
	C405.526703,694.231995 395.013947,698.582336 384.755646,693.390930 
z"/>
<path fill="#1B1B1B" opacity="1.000000" stroke="none" 
	d="
M539.106812,681.273315 
	C540.951355,672.881775 546.739502,668.452332 554.433167,669.150879 
	C561.152466,669.760986 566.418396,674.871033 566.893372,681.242249 
	C567.478638,689.094666 561.910034,695.399597 553.967102,695.877747 
	C545.350220,696.396545 539.456604,690.776489 539.106812,681.273315 
z"/>
</svg>